<svg width="255" height="255" viewBox="0 0 255 255" fill="none" xmlns="http://www.w3.org/2000/svg">
<path opacity="0.85" d="M141.453 141.19C152.056 139.042 162.012 134.454 170.533 127.79C162.139 120.745 152.205 115.774 141.533 113.28C143.35 122.498 143.32 131.984 141.443 141.19H141.453Z" fill="white" fill-opacity="0.6" stroke="white" stroke-width="4" stroke-miterlimit="10"/>
<path opacity="0.85" d="M113.344 141.51C115.568 152.352 120.324 162.515 127.224 171.17C134.143 162.523 138.913 152.358 141.144 141.51C131.97 143.363 122.517 143.363 113.344 141.51V141.51Z" fill="white" fill-opacity="0.6" stroke="white" stroke-width="4" stroke-miterlimit="10"/>
<path d="M55.2835 181.72C55.2725 171.022 57.7055 160.462 62.3969 150.847C67.0883 141.232 73.9141 132.815 82.3535 126.24C72.6186 118.07 65.273 107.421 61.094 95.4194C56.915 83.4175 56.0579 70.5091 58.6135 58.0601C42.8287 61.1893 28.5959 69.6406 18.2931 82.0019C7.9903 94.3632 2.24157 109.886 2.00744 125.976C1.77332 142.066 7.06798 157.749 17.0068 170.405C26.9456 183.061 40.9265 191.923 56.6135 195.51C55.7228 190.968 55.2774 186.349 55.2835 181.72Z" fill="#D1F8E8" stroke="white" stroke-width="4" stroke-miterlimit="10"/>
<path d="M181.953 197.07C171.449 197.075 161.078 194.71 151.614 190.151C142.151 185.593 133.837 178.957 127.293 170.74C119.053 181.113 108.046 188.943 95.5448 193.326C83.0433 197.709 69.557 198.466 56.6434 195.51C59.7434 211.406 68.2592 225.735 80.7399 236.056C93.2207 246.377 108.894 252.051 125.089 252.111C141.284 252.171 156.999 246.614 169.556 236.386C182.113 226.158 190.735 211.892 193.953 196.02C189.991 196.715 185.976 197.066 181.953 197.07Z" fill="#D2F4FF" stroke="white" stroke-width="4" stroke-miterlimit="10"/>
<path d="M195.874 58.11C196.819 62.774 197.295 67.5211 197.294 72.28C197.306 82.9777 194.874 93.5368 190.185 103.152C185.495 112.767 178.671 121.184 170.234 127.76C180.012 135.96 187.379 146.662 191.548 158.723C195.717 170.785 196.531 183.752 193.904 196.24C210.018 193.404 224.639 185.038 235.248 172.583C245.858 160.127 251.792 144.362 252.029 128.002C252.266 111.642 246.791 95.7116 236.546 82.9541C226.301 70.1967 211.929 61.4109 195.904 58.11H195.874Z" fill="#FFDCF1" stroke="white" stroke-width="4" stroke-miterlimit="10"/>
<path d="M127.234 2C111.091 2.01936 95.4494 7.60698 82.9483 17.8199C70.4472 28.0328 61.8521 42.2457 58.6135 58.06C71.2502 55.5568 84.3317 56.574 96.4296 61.0005C108.527 65.4269 119.176 73.0925 127.214 83.16C135.245 73.0737 145.907 65.4018 158.023 60.9904C170.138 56.5789 183.237 55.5995 195.874 58.16C192.653 42.3248 184.063 28.0874 171.556 17.8546C159.049 7.62179 143.393 2.02135 127.234 2V2Z" fill="#FFF9D2" stroke="white" stroke-width="4" stroke-miterlimit="10"/>
<path opacity="0.85" d="M141.223 113.26C139.034 102.251 134.233 91.9277 127.223 83.16C120.395 91.7177 115.665 101.756 113.413 112.47C122.645 110.855 132.108 111.123 141.233 113.26H141.223Z" fill="white" fill-opacity="0.6" stroke="white" stroke-width="4" stroke-miterlimit="10"/>
<path opacity="0.85" d="M113.543 141.18C111.636 131.823 111.636 122.177 113.543 112.82C113.543 112.76 113.543 112.7 113.543 112.64C102.232 114.606 91.582 119.34 82.5435 126.42C91.6279 134.023 102.5 139.185 114.133 141.42V141.24L113.543 141.18Z" fill="#FCFCFC" fill-opacity="0.6" stroke="white" stroke-width="4" stroke-miterlimit="10"/>
<path d="M128.014 83.39C119.979 73.3454 109.339 65.7014 97.2552 61.2926C85.1716 56.8838 72.109 55.8797 59.4935 58.39C56.9387 70.8367 57.7952 83.7424 61.9724 95.7424C66.1495 107.742 73.4921 118.39 83.2235 126.56C92.2614 119.481 102.912 114.75 114.224 112.79C116.445 102.042 121.169 91.9696 128.014 83.39V83.39Z" fill="#EFF7D7" stroke="white" stroke-width="4" stroke-miterlimit="10"/>
<path d="M114.234 112.78C123.474 111.192 132.938 111.46 142.074 113.57C139.885 102.525 135.062 92.1711 128.014 83.39C121.177 91.9715 116.459 102.044 114.244 112.79L114.234 112.78Z" stroke="white" stroke-width="4"/>
<path opacity="0.85" d="M142.013 141.33C132.829 143.183 123.368 143.183 114.183 141.33C112.276 131.973 112.276 122.327 114.183 112.97C114.183 112.91 114.183 112.85 114.183 112.79C102.872 114.75 92.2213 119.481 83.1835 126.56C91.2386 133.308 100.709 138.155 110.894 140.743C121.078 143.331 131.714 143.593 142.013 141.51V141.33V141.33Z" stroke="white" stroke-width="4" stroke-miterlimit="10"/>
<path d="M198.013 72.67C198.028 83.1615 195.691 93.5228 191.174 102.992C186.657 112.462 180.076 120.799 171.913 127.39C163.206 134.471 152.912 139.336 141.913 141.57V141.57C132.729 143.423 123.268 143.423 114.083 141.57C112.176 132.213 112.176 122.567 114.083 113.21C117.784 95.0162 128.553 79.0346 144.027 68.7748C159.501 58.5151 178.414 54.8161 196.613 58.49C197.558 63.1573 198.027 67.9082 198.013 72.67V72.67Z" stroke="white" stroke-width="4"/>
<path d="M142.014 113.81C152.686 116.29 162.622 121.254 171.014 128.3C181.33 120.22 189.191 109.424 193.713 97.1246C198.235 84.8251 199.239 71.5087 196.614 58.67C183.978 56.1115 170.882 57.0919 158.768 61.5033C146.655 65.9146 135.995 73.5855 127.964 83.67C134.972 92.4342 139.774 102.754 141.964 113.76L142.014 113.81Z" fill="#FFE4C9" stroke="white" stroke-width="4" stroke-miterlimit="10"/>
<path opacity="0.85" d="M143.333 127.24C143.324 137.797 140.939 148.216 136.355 157.725C131.77 167.235 125.104 175.59 116.851 182.172C108.597 188.755 98.9683 193.395 88.6774 195.749C78.3864 198.102 67.6976 198.11 57.4034 195.77C55.0598 184.256 55.647 172.338 59.1112 161.11C62.5754 149.883 68.8054 139.706 77.2291 131.514C85.6527 123.322 95.9997 117.379 107.32 114.229C118.64 111.08 130.57 110.826 142.013 113.49C142.901 118.019 143.343 122.625 143.333 127.24V127.24Z" stroke="white" stroke-width="4" stroke-miterlimit="10"/>
<path d="M114.074 141.42C102.653 139.113 91.9937 133.976 83.0735 126.48C72.7955 134.514 64.9505 145.244 60.4127 157.475C55.875 169.706 54.8228 182.956 57.3735 195.75C70.279 198.712 83.759 197.964 96.258 193.594C108.757 189.224 119.766 181.408 128.014 171.05C121.115 162.412 116.365 152.261 114.154 141.43L114.074 141.42Z" fill="#BFFBE5" stroke="white" stroke-width="4" stroke-miterlimit="10"/>
<path opacity="0.85" d="M114.134 141.43C112.19 131.953 112.214 122.178 114.204 112.71C102.857 114.661 92.1713 119.396 83.1035 126.49C92.0236 133.986 102.683 139.123 114.104 141.43H114.134Z" stroke="white" stroke-width="4" stroke-miterlimit="10"/>
<path d="M171.093 127.43C162.594 134.067 152.665 138.631 142.093 140.76V140.95C139.864 151.803 135.089 161.972 128.163 170.62C135.967 180.463 146.283 188.016 158.023 192.483C169.763 196.951 182.491 198.165 194.863 196C195.865 191.222 196.371 186.352 196.373 181.47C196.384 171.159 194.125 160.972 189.756 151.633C185.387 142.293 179.015 134.03 171.093 127.43V127.43Z" fill="#E4E4FE" stroke="white" stroke-width="4" stroke-miterlimit="10"/>
<path d="M143.543 126.76C143.547 131.462 143.078 136.152 142.143 140.76C152.715 138.631 162.644 134.067 171.143 127.43C162.759 120.421 152.847 115.478 142.203 113C143.099 117.532 143.548 122.141 143.543 126.76V126.76Z" stroke="white" stroke-width="4" stroke-miterlimit="10"/>
<path d="M142.514 123.8C142.514 123.52 142.514 123.25 142.464 122.98C142.464 122.16 142.354 121.34 142.284 120.53L142.194 119.7C142.107 118.887 142.007 118.077 141.894 117.27L141.774 116.51C141.647 115.69 141.507 114.88 141.354 114.08C141.354 113.95 141.304 113.81 141.274 113.68C136.208 112.502 131.024 111.905 125.824 111.9C121.922 111.897 118.027 112.232 114.184 112.9C114.184 113.03 114.184 113.16 114.114 113.28C113.924 114.19 113.764 115.1 113.614 116.02C113.614 116.29 113.524 116.56 113.484 116.84C113.364 117.66 113.254 118.48 113.164 119.31C113.164 119.63 113.094 119.95 113.054 120.31C112.974 121.12 112.914 121.95 112.864 122.77L112.804 123.7C112.754 124.82 112.714 125.94 112.714 127.07C112.711 131.705 113.177 136.329 114.104 140.87C123.046 142.683 132.261 142.683 141.204 140.87C142.13 136.329 142.596 131.705 142.594 127.07C142.594 126 142.564 124.88 142.514 123.8Z" fill="white" fill-opacity="0.6" stroke="#F4F4F4" stroke-width="2" stroke-miterlimit="10"/>
</svg>
